<svg xmlns="http://www.w3.org/2000/svg" xmlns:xlink="http://www.w3.org/1999/xlink" viewBox="0 0 182.67 162.833"><defs><style>.cls-1{fill:url(#linear-gradient);}.cls-2{fill:url(#linear-gradient-2);}.cls-3{fill:url(#linear-gradient-3);}</style><linearGradient id="linear-gradient" x1="19.547" y1="80.661" x2="165.047" y2="80.661" gradientUnits="userSpaceOnUse"><stop offset="0.188" stop-color="#282828"/><stop offset="0.637" stop-color="#282828"/><stop offset="0.753" stop-color="#2b2b2b" stop-opacity="0.987"/><stop offset="0.795" stop-color="#363636" stop-opacity="0.94"/><stop offset="0.824" stop-color="#494949" stop-opacity="0.858"/><stop offset="0.837" stop-color="#565656" stop-opacity="0.8"/><stop offset="0.867" stop-color="#434343" stop-opacity="0.882"/><stop offset="0.914" stop-color="#2f2f2f" stop-opacity="0.97"/><stop offset="0.958" stop-color="#282828"/></linearGradient><linearGradient id="linear-gradient-2" x1="0" y1="81.417" x2="182.67" y2="81.417" xlink:href="#linear-gradient"/><linearGradient id="linear-gradient-3" x1="92.364" y1="114.756" x2="149.239" y2="116.621" gradientUnits="userSpaceOnUse"><stop offset="0.188" stop-color="#282828"/><stop offset="0.268" stop-color="#282828"/><stop offset="0.544" stop-color="#2c2c2c" stop-opacity="0.984"/><stop offset="0.691" stop-color="#383838" stop-opacity="0.929"/><stop offset="0.806" stop-color="#4e4e4e" stop-opacity="0.836"/><stop offset="0.837" stop-color="#565656" stop-opacity="0.8"/><stop offset="0.9" stop-color="#4a4a4a" stop-opacity="0.85"/><stop offset="0.993" stop-color="#2b2b2b" stop-opacity="0.988"/><stop offset="1" stop-color="#282828"/></linearGradient></defs><g id="Layer_2" data-name="Layer 2"><g id="Layer_1-2" data-name="Layer 1"><path class="cls-1" d="M130.2,54.88l-7.98-15.82c-.464-.929-.929-1.843-1.394-2.773-.993-1.971-2-3.959-3-5.946-.833-1.651-1.667-3.3-2.516-4.953a38.092,38.092,0,0,0-2.388-4.616,8.068,8.068,0,0,0-3.333-2.708,7.4,7.4,0,0,0-3.509-.657,7.547,7.547,0,0,0-3.734,1.234,11.6,11.6,0,0,0-2.98,3.269c-.657.946-1.3,1.908-1.955,2.869-.16.257-.336.5-.5.738L93.869,30l-4.535,6.668-7.115,10.5-2.868,4.216L73.2,60.441l-2.051,3.014-1.49,2.2a1.982,1.982,0,0,0-.161.241l-.012.017a3.029,3.029,0,0,0-.172.353L59.82,80.191l-.017-.034v0l-5.32,7.821-7.676,11.3-5.544,8.174L26.376,129.345l-6.217,9.168a3.457,3.457,0,0,0,2.852,5.417H65.7a7.518,7.518,0,0,0,6.249-3.317c.32-.449.625-.9.929-1.363l.033-.032,4.47-6.587.016-.016,5.1-7.5,8.6-12.662,4.791-7.053,5.849-8.623,15.27-22.487,8.157-12,6.73,12.87,29.436,56.322.016.048.192.352,3.509-7.965L136.8,67.942ZM72.9,139.22a72.957,72.957,0,0,1,4.478-6.594Z"/><path class="cls-2" d="M181.686,117.852l-32.379-64.18-6.6-13.059L127.16,9.787l-.349-.421A25.966,25.966,0,0,0,111.617.449,26.786,26.786,0,0,0,106.752,0c-.746,0-1.474.038-2.152.1A25.731,25.731,0,0,0,94.764,2.88a8.037,8.037,0,0,0-.757.422,25.438,25.438,0,0,0-7.626,6.421l-.124.155-1.842,2.738-6.171,9.091L57.218,52.655l-.552.785-2.742,4.069c-.239.366-.482.745-.7,1.124L48.2,66.051l-.044-.074L5.284,129.1H5.265L4.121,130.8l-.027.027-.142.224-1.805,2.674v.227a17.969,17.969,0,0,0-.828,1.844A19.455,19.455,0,0,0,0,142.856c0,.5.023,1.014.059,1.382a19.169,19.169,0,0,0,1.259,5.676,19.488,19.488,0,0,0,14.955,12.224,47.574,47.574,0,0,0,8.512.577q4.011.018,8.024.054c4.037.032,8.074.064,12.111.064,4.987,0,9.149-.048,13.1-.152.809-.022,1.64-.03,2.482-.04,6.426-.071,14.423-.159,20.3-5.816a20.946,20.946,0,0,0,2.492-2.951l4.819-6.927,3.027,6,.108.176a19.335,19.335,0,0,0,2.085,2.786,20.284,20.284,0,0,0,15.1,6.7h43.794a19.245,19.245,0,0,0,9.811-2.7,19.638,19.638,0,0,0,9.058-12.37l11.573-27.716Zm-15.2,28.242v.016a14.8,14.8,0,0,1-6.906,9.665,14.387,14.387,0,0,1-7.355,2.019H108.435a15.455,15.455,0,0,1-11.522-5.1,14.647,14.647,0,0,1-1.57-2.1l-1.17-2.324-2.2-4.344-2.9-5.754-.305-.593-9.422,13.544a16.024,16.024,0,0,1-1.907,2.26c-5.128,4.936-13,4.311-19.549,4.488-11.024.288-22.065.08-33.09.032a43.613,43.613,0,0,1-7.659-.5,15.116,15.116,0,0,1-7.419-3.542,14.819,14.819,0,0,1-3.926-5.69,14.363,14.363,0,0,1-.945-4.248c-.032-.352-.048-.721-.048-1.073a14.675,14.675,0,0,1,.993-5.322,13.259,13.259,0,0,1,1.138-2.292c0-.016.016-.032.016-.048l.865-1.282c.016,0,.016-.016.032-.032L38.426,88.859,47.9,74.914l.048.081,9.374-13.832c.208-.385.465-.77.705-1.138l2.628-3.895.5-.705,3.942-5.8,1.522-2.243L82.219,24.411l4.936-7.277,1.234-1.811,1.746-2.6A20.782,20.782,0,0,1,96.5,7.421a2.777,2.777,0,0,1,.416-.24,21.1,21.1,0,0,1,8.061-2.292c.576-.048,1.169-.08,1.778-.08a21.9,21.9,0,0,1,3.99.368,21.092,21.092,0,0,1,12.371,7.261l4.038,8.014,11.264,22.327,6.6,13.062L166.489,98.4l10.48,20.772.417.834Z"/><path class="cls-3" d="M145.947,129.682,123.738,87.16,110.71,106.008,102.3,118.174,97.474,125.1l.209.4,2.435,4.825.16.3,5.737,11.38a3.529,3.529,0,0,0,3.141,1.923h42.031a1.344,1.344,0,0,0,1.2-1.955C150.337,138.064,145.963,129.682,145.947,129.682Z"/></g></g></svg>