<svg xmlns="http://www.w3.org/2000/svg" xmlns:xlink="http://www.w3.org/1999/xlink" viewBox="0 0 193.39 162.881"><defs><style>.cls-1{fill:url(#linear-gradient);}.cls-2{fill:url(#linear-gradient-2);}</style><linearGradient id="linear-gradient" x1="56.387" y1="81.359" x2="193.39" y2="81.359" gradientUnits="userSpaceOnUse"><stop offset="0.188" stop-color="#282828"/><stop offset="0.637" stop-color="#282828"/><stop offset="0.753" stop-color="#2b2b2b" stop-opacity="0.987"/><stop offset="0.795" stop-color="#363636" stop-opacity="0.94"/><stop offset="0.824" stop-color="#494949" stop-opacity="0.858"/><stop offset="0.837" stop-color="#565656" stop-opacity="0.8"/><stop offset="0.867" stop-color="#434343" stop-opacity="0.882"/><stop offset="0.914" stop-color="#2f2f2f" stop-opacity="0.97"/><stop offset="0.958" stop-color="#282828"/></linearGradient><linearGradient id="linear-gradient-2" x1="0" y1="117.827" x2="87.808" y2="117.827" xlink:href="#linear-gradient"/></defs><g id="Layer_2" data-name="Layer 2"><g id="Layer_1-2" data-name="Layer 1"><path class="cls-1" d="M193.39,121.84a3.558,3.558,0,0,1-.642,2c-.221.318-.442.626-.672.935-.1.136-.192.272-.288.417-.153.209-.307.427-.46.627-.134.191-.278.381-.413.581-.144.181-.249.327-.345.463l-.144.19c-.077.128-.182.273-.288.418l-1.64,2.288c-.5.7-1,1.4-1.506,2.106-.691.971-1.382,1.933-2.063,2.914a1.388,1.388,0,0,1-1.228.681,1.527,1.527,0,0,1-1.228-1.017l-2.59-4.839L128.818,33.91q-1.526-2.872-3.041-5.728l-2.8-5.229c-.259-.49-.509-.99-.758-1.489a23.5,23.5,0,0,0-1.832-3.241,7.858,7.858,0,0,0-3.32-2.551,7.627,7.627,0,0,0-3.453-.617,7.955,7.955,0,0,0-3.665,1.162,11.77,11.77,0,0,0-3.05,3.2c-.538.744-1.065,1.479-1.583,2.215l-.576.8c-.144.2-.278.382-.4.554L95.76,34.936,73.868,65.42a2.906,2.906,0,0,0-.221,3.077l40.705,76.292a2.937,2.937,0,0,0,2.628,1.534h46.748a.522.522,0,0,0,.451-.236.471.471,0,0,0,.019-.481l-3.319-6c-2.657-4.811-3.521-6.381-3.809-6.962l-.028.018L133.1,89.286,109.44,122.221,102.3,108.84a3.99,3.99,0,0,1,.288-4.249l28.626-39.87a3.965,3.965,0,0,1,3.464-1.616,3.922,3.922,0,0,1,3.252,1.979l35.9,64.98c.4.736.806,1.462,1.2,2.2.518.963,1.036,1.916,1.573,2.869.355.645.729,1.271,1.113,1.906.595,1,1.209,2.025,1.746,3.1a18.22,18.22,0,0,1,2.274,7.58c.143,5.538-4.01,10.4-8.193,12.755a17.609,17.609,0,0,1-8.672,2.251H116.193a18.636,18.636,0,0,1-13.516-5.665,15.916,15.916,0,0,1-1.852-2.324L58.221,74.87a15.457,15.457,0,0,1,1.123-16.4L61.8,55.062c.758-1.053,1.343-1.87,1.611-2.242L95.06,8.728a23.806,23.806,0,0,1,7.4-5.883c.134-.072.326-.172.5-.254A25.455,25.455,0,0,1,112.27.085,26.176,26.176,0,0,1,118.928.4,24.758,24.758,0,0,1,133.25,8.365l.115.163,48.389,90.716c.048.091.076.146.1.191l.124.218c.048.091.087.182.125.254a3.418,3.418,0,0,1,.192.336c.058.118.125.236.182.345l.24.463c.038.064.106.2.182.336l.873,1.634c.1.191.192.372.3.554.1.2.211.4.326.608l.153.3.173.326c.106.191.23.418.336.636l.355.644c.115.227.22.436.345.654.115.236.23.445.345.654s.183.344.259.49l.135.245c.115.218.24.454.374.7.105.191.221.408.336.626l1.151,2.188c.125.218.249.454.384.7.115.227.249.463.374.708.105.2.24.436.355.672.076.127.172.309.259.481l.086.173c.125.2.24.426.365.653.105.209.211.418.326.617l.163.318c.067.118.125.236.182.345l1.171,2.179c.086.154.172.327.268.5l.23.445c.087.154.163.291.231.427l.163.308c.048.073.076.146.115.209l.115.227a4.252,4.252,0,0,1,.153.454A3.017,3.017,0,0,1,193.39,121.84Z"/><path class="cls-2" d="M87.8,146.033a16.839,16.839,0,0,1-5.429,11.7c-5.248,4.793-12.836,4.866-19.523,4.939-.969.009-1.918.018-2.849.045-4.854.118-9.766.163-14.639.163-4.538,0-9.056-.036-13.507-.072-2.888-.018-5.775-.046-8.673-.055a50.971,50.971,0,0,1-8.681-.544,17.984,17.984,0,0,1-8.721-3.949,16.6,16.6,0,0,1-4.614-6.328A15.378,15.378,0,0,1,.048,147.2c-.029-.391-.048-.79-.048-1.2a15.584,15.584,0,0,1,2.36-8.261v-.018l1.3-1.834L48.983,72.773l5.631,10.549a9.141,9.141,0,0,1-.671,9.695L18.8,141.966a2.566,2.566,0,0,0-.163,2.814,2.865,2.865,0,0,0,2.552,1.452H68.64a7.577,7.577,0,0,0,6.168-3.086c.816-1.08,1.593-2.243,2.341-3.359a43.7,43.7,0,0,1,4.125-5.547l.595-.644.719.526a14.882,14.882,0,0,1,3.655,4.7A14.678,14.678,0,0,1,87.8,146.033Z"/></g></g></svg>