<svg xmlns="http://www.w3.org/2000/svg" xmlns:xlink="http://www.w3.org/1999/xlink" viewBox="0 0 226.724 226.724"><defs><style>.cls-1{fill:url(#linear-gradient);}.cls-2{fill:#fff;}</style><linearGradient id="linear-gradient" y1="113.362" x2="226.724" y2="113.362" gradientUnits="userSpaceOnUse"><stop offset="0.188" stop-color="#732383"/><stop offset="0.447" stop-color="#732383"/><stop offset="0.666" stop-color="#772585" stop-opacity="0.988"/><stop offset="0.744" stop-color="#862b8b" stop-opacity="0.945"/><stop offset="0.8" stop-color="#9f3596" stop-opacity="0.87"/><stop offset="0.832" stop-color="#b73fa0" stop-opacity="0.8"/><stop offset="0.867" stop-color="#983293" stop-opacity="0.891"/><stop offset="0.916" stop-color="#7c2787" stop-opacity="0.973"/><stop offset="0.961" stop-color="#732383"/></linearGradient></defs><g id="Layer_2" data-name="Layer 2"><g id="Layer_1-2" data-name="Layer 1"><rect class="cls-1" width="226.724" height="226.724" rx="59.903"/><path class="cls-2" d="M210.057,151.9a3.559,3.559,0,0,1-.643,2c-.22.318-.441.626-.671.935-.1.136-.192.272-.288.418-.154.208-.307.426-.461.626-.134.191-.278.381-.412.581-.144.181-.249.327-.345.463l-.144.191c-.077.127-.183.272-.288.417l-1.64,2.288c-.5.7-1,1.4-1.507,2.106-.69.971-1.381,1.934-2.062,2.914a1.388,1.388,0,0,1-1.228.681,1.527,1.527,0,0,1-1.228-1.017l-2.59-4.838L145.485,63.967q-1.526-2.873-3.041-5.728l-2.8-5.229c-.259-.49-.509-.99-.758-1.489a23.5,23.5,0,0,0-1.833-3.241,7.839,7.839,0,0,0-3.319-2.55,7.628,7.628,0,0,0-3.453-.618,7.951,7.951,0,0,0-3.665,1.162,11.8,11.8,0,0,0-3.051,3.2c-.537.744-1.065,1.479-1.583,2.215l-.575.8c-.144.2-.278.382-.4.554l-8.576,11.956L90.535,95.477a2.906,2.906,0,0,0-.221,3.077l40.7,76.292a2.939,2.939,0,0,0,2.629,1.534H180.4a.524.524,0,0,0,.451-.236.471.471,0,0,0,.019-.481l-3.319-6c-2.658-4.812-3.521-6.382-3.809-6.963l-.029.018-23.945-43.375-23.656,32.935L118.969,138.9a3.988,3.988,0,0,1,.288-4.248l28.626-39.871a3.965,3.965,0,0,1,3.463-1.616,3.921,3.921,0,0,1,3.252,1.979l35.9,64.981c.4.735.806,1.461,1.2,2.2.518.963,1.036,1.916,1.573,2.869.355.645.729,1.271,1.113,1.906.594,1,1.208,2.025,1.746,3.1a18.2,18.2,0,0,1,2.273,7.58c.144,5.538-4.01,10.4-8.192,12.755a17.613,17.613,0,0,1-8.673,2.251H132.86a18.637,18.637,0,0,1-13.517-5.665,15.977,15.977,0,0,1-1.851-2.324l-42.6-79.859a15.457,15.457,0,0,1,1.123-16.4l2.455-3.413c.758-1.053,1.344-1.87,1.612-2.242l31.648-44.092a23.821,23.821,0,0,1,7.4-5.883c.134-.072.326-.172.5-.254a25.444,25.444,0,0,1,9.316-2.505,26.124,26.124,0,0,1,6.657.317,24.761,24.761,0,0,1,14.323,7.962l.115.163L198.42,129.3c.048.09.077.145.1.19l.125.218c.048.091.086.182.125.254.057.082.124.209.192.336s.124.236.182.345l.24.463c.038.064.105.2.182.336l.873,1.634c.1.191.192.372.3.554.106.2.211.4.327.608l.153.3.173.326c.105.191.23.418.336.636l.354.644c.116.227.221.436.346.654.115.236.23.445.345.654s.182.345.259.49l.134.245c.116.218.24.454.375.7.105.191.22.409.335.626l1.152,2.188c.124.218.249.454.383.7.115.227.25.463.374.708.106.2.24.436.355.672.077.127.173.309.259.481l.087.173c.124.2.24.426.364.653.106.209.211.418.326.618l.164.317c.067.118.124.236.182.345l1.17,2.179c.087.154.173.327.269.5l.23.445c.086.154.163.291.23.427l.163.308c.048.073.077.146.115.209l.116.227a4.329,4.329,0,0,1,.153.454A3.06,3.06,0,0,1,210.057,151.9Z"/><path class="cls-2" d="M104.464,176.09a16.84,16.84,0,0,1-5.43,11.7c-5.247,4.793-12.835,4.866-19.522,4.939-.969.009-1.919.018-2.849.045-4.854.118-9.766.163-14.639.163-4.538,0-9.056-.036-13.508-.072-2.887-.018-5.775-.045-8.672-.055a50.989,50.989,0,0,1-8.682-.544,17.976,17.976,0,0,1-8.72-3.949,16.612,16.612,0,0,1-4.615-6.328,15.406,15.406,0,0,1-1.112-4.729c-.029-.391-.048-.79-.048-1.2a15.557,15.557,0,0,1,2.36-8.261v-.018l1.295-1.833L65.65,102.83l5.631,10.549a9.141,9.141,0,0,1-.671,9.695L35.47,172.023a2.566,2.566,0,0,0-.164,2.814,2.867,2.867,0,0,0,2.552,1.452H85.306a7.576,7.576,0,0,0,6.169-3.086c.815-1.08,1.592-2.242,2.341-3.359a43.6,43.6,0,0,1,4.125-5.547l.595-.644.719.526a14.882,14.882,0,0,1,3.655,4.7A14.68,14.68,0,0,1,104.464,176.09Z"/></g></g></svg>